<svg width="32" height="35" viewBox="0 0 32 35" fill="none" xmlns="http://www.w3.org/2000/svg">
<path fill-rule="evenodd" clip-rule="evenodd" d="M25.0307 3.32462L28.9207 6.49062C29.2963 6.8566 29.5069 7.35964 29.5037 7.88402C29.5007 8.40842 29.2845 8.909 28.9047 9.27062L25.9487 12.8706L15.8887 25.1446C15.7145 25.3498 15.4801 25.4946 15.2187 25.5586L10.0028 26.7586C9.31065 26.7872 8.71381 26.2768 8.63477 25.5886L8.87877 20.4426C8.89685 20.1798 9.00084 19.9304 9.17476 19.7326L18.8007 8.00262L22.1907 3.86662C22.8493 2.9701 24.0883 2.73368 25.0307 3.32462Z" stroke="black" stroke-width="5" stroke-linecap="round" stroke-linejoin="round"/>
<path d="M1.5 31.4823C0.67158 31.4823 0 32.1539 0 32.9823C0 33.8109 0.67158 34.4823 1.5 34.4823V31.4823ZM28.9 34.4823C29.7284 34.4823 30.4 33.8109 30.4 32.9823C30.4 32.1539 29.7284 31.4823 28.9 31.4823V34.4823ZM20.191 7.44091C19.8808 6.67271 19.0068 6.30131 18.2386 6.61139C17.4704 6.92147 17.099 7.79559 17.409 8.56379L20.191 7.44091ZM26.2786 14.3395C27.0866 14.1569 27.5936 13.3539 27.4112 12.5458C27.2286 11.7377 26.4256 11.2307 25.6174 11.4132L26.2786 14.3395ZM1.5 34.4823H28.9V31.4823H1.5V34.4823ZM17.409 8.56379C17.8744 9.71653 18.83 11.3599 20.253 12.6253C21.7022 13.914 23.766 14.9071 26.2786 14.3395L25.6174 11.4132C24.332 11.7036 23.2218 11.2507 22.2466 10.3834C21.245 9.49279 20.5256 8.27019 20.191 7.44091L17.409 8.56379Z" fill="black"/>
</svg>
