<svg width="140" height="140" viewBox="0 0 140 140" fill="none" xmlns="http://www.w3.org/2000/svg">
<path d="M6.92821 76C4.78461 72.2872 4.78461 67.7128 6.9282 64L33.2679 18.3782C35.4115 14.6654 39.3731 12.3782 43.6603 12.3782L96.3397 12.3782C100.627 12.3782 104.588 14.6654 106.732 18.3782L133.072 64C135.215 67.7128 135.215 72.2872 133.072 76L106.732 121.622C104.588 125.335 100.627 127.622 96.3397 127.622L43.6603 127.622C39.3731 127.622 35.4115 125.335 33.268 121.622L6.92821 76Z" stroke="white" stroke-width="6"/>
<rect x="37" y="47" width="65" height="46" rx="7" stroke="white" stroke-width="4"/>
<path d="M66.0156 57.2129C65.4753 56.6855 64.8405 56.2819 64.1113 56.002C63.3822 55.722 62.6107 55.582 61.7969 55.582C60.9505 55.582 60.1725 55.7318 59.4629 56.0312C58.7533 56.3242 58.138 56.7441 57.6172 57.291C57.1029 57.8314 56.7025 58.4727 56.416 59.2148C56.1361 59.957 55.9961 60.7741 55.9961 61.666C55.9961 62.5514 56.1361 63.3685 56.416 64.1172C56.696 64.8594 57.0898 65.5039 57.5977 66.0508C58.1055 66.5977 58.7077 67.0208 59.4043 67.3203C60.1009 67.6198 60.8659 67.7695 61.6992 67.7695C62.4674 67.7695 63.1738 67.6426 63.8184 67.3887C64.4694 67.1283 65.0391 66.7637 65.5273 66.2949C66.0221 65.8197 66.4193 65.2565 66.7188 64.6055C67.0247 63.9479 67.2135 63.2253 67.2852 62.4375H61.9141V61.0801H68.8086L68.8574 61.7148C68.8574 62.8281 68.6816 63.847 68.3301 64.7715C67.985 65.696 67.4935 66.4967 66.8555 67.1738C66.2174 67.8509 65.4622 68.375 64.5898 68.7461C63.7174 69.1107 62.7572 69.293 61.709 69.293C60.6348 69.293 59.6419 69.1042 58.7305 68.7266C57.8255 68.3424 57.0345 67.8086 56.3574 67.125C55.6868 66.4414 55.166 65.6406 54.7949 64.7227C54.4238 63.7982 54.2383 62.7923 54.2383 61.7051C54.2383 60.6113 54.4271 59.599 54.8047 58.668C55.1823 57.737 55.7096 56.9264 56.3867 56.2363C57.0638 55.5462 57.8613 55.0124 58.7793 54.6348C59.6973 54.2507 60.6966 54.0586 61.7773 54.0586C62.7995 54.0586 63.7695 54.2344 64.6875 54.5859C65.612 54.9375 66.4323 55.4421 67.1484 56.0996L66.0156 57.2129ZM77.1445 69.293C76.0443 69.293 75.0286 69.1042 74.0977 68.7266C73.1732 68.349 72.3691 67.8184 71.6855 67.1348C71.002 66.4447 70.4714 65.6374 70.0938 64.7129C69.7161 63.7819 69.5273 62.7695 69.5273 61.6758C69.5273 60.5755 69.7161 59.5632 70.0938 58.6387C70.4714 57.7077 71.002 56.9004 71.6855 56.2168C72.3691 55.5332 73.1732 55.0026 74.0977 54.625C75.0286 54.2474 76.0443 54.0586 77.1445 54.0586C78.2448 54.0586 79.2572 54.2474 80.1816 54.625C81.1061 55.0026 81.9102 55.5332 82.5938 56.2168C83.2773 56.9004 83.8079 57.7077 84.1855 58.6387C84.5632 59.5632 84.752 60.5755 84.752 61.6758C84.752 62.7695 84.5632 63.7819 84.1855 64.7129C83.8079 65.6374 83.2773 66.4447 82.5938 67.1348C81.9102 67.8184 81.1061 68.349 80.1816 68.7266C79.2572 69.1042 78.2448 69.293 77.1445 69.293ZM77.1445 67.7695C77.9844 67.7695 78.7591 67.6165 79.4688 67.3105C80.1849 67.0046 80.8066 66.5781 81.334 66.0312C81.8613 65.4779 82.2682 64.8333 82.5547 64.0977C82.8477 63.3555 82.9941 62.5482 82.9941 61.6758C82.9941 60.8034 82.8477 59.9961 82.5547 59.2539C82.2682 58.5117 81.8613 57.8672 81.334 57.3203C80.8066 56.7669 80.1849 56.3405 79.4688 56.041C78.7591 55.735 77.9844 55.582 77.1445 55.582C76.3047 55.582 75.5267 55.735 74.8105 56.041C74.1009 56.3405 73.4824 56.7669 72.9551 57.3203C72.4277 57.8672 72.0176 58.5117 71.7246 59.2539C71.4316 59.9961 71.2852 60.8034 71.2852 61.6758C71.2852 62.5482 71.4316 63.3555 71.7246 64.0977C72.0176 64.8398 72.4277 65.4876 72.9551 66.041C73.4824 66.5879 74.1009 67.0143 74.8105 67.3203C75.5267 67.6198 76.3047 67.7695 77.1445 67.7695ZM66.0156 73.2129C65.4753 72.6855 64.8405 72.2819 64.1113 72.002C63.3822 71.722 62.6107 71.582 61.7969 71.582C60.9505 71.582 60.1725 71.7318 59.4629 72.0312C58.7533 72.3242 58.138 72.7441 57.6172 73.291C57.1029 73.8314 56.7025 74.4727 56.416 75.2148C56.1361 75.957 55.9961 76.7741 55.9961 77.666C55.9961 78.5514 56.1361 79.3685 56.416 80.1172C56.696 80.8594 57.0898 81.5039 57.5977 82.0508C58.1055 82.5977 58.7077 83.0208 59.4043 83.3203C60.1009 83.6198 60.8659 83.7695 61.6992 83.7695C62.4674 83.7695 63.1738 83.6426 63.8184 83.3887C64.4694 83.1283 65.0391 82.7637 65.5273 82.2949C66.0221 81.8197 66.4193 81.2565 66.7188 80.6055C67.0247 79.9479 67.2135 79.2253 67.2852 78.4375H61.9141V77.0801H68.8086L68.8574 77.7148C68.8574 78.8281 68.6816 79.847 68.3301 80.7715C67.985 81.696 67.4935 82.4967 66.8555 83.1738C66.2174 83.8509 65.4622 84.375 64.5898 84.7461C63.7174 85.1107 62.7572 85.293 61.709 85.293C60.6348 85.293 59.6419 85.1042 58.7305 84.7266C57.8255 84.3424 57.0345 83.8086 56.3574 83.125C55.6868 82.4414 55.166 81.6406 54.7949 80.7227C54.4238 79.7982 54.2383 78.7923 54.2383 77.7051C54.2383 76.6113 54.4271 75.599 54.8047 74.668C55.1823 73.737 55.7096 72.9264 56.3867 72.2363C57.0638 71.5462 57.8613 71.0124 58.7793 70.6348C59.6973 70.2507 60.6966 70.0586 61.7773 70.0586C62.7995 70.0586 63.7695 70.2344 64.6875 70.5859C65.612 70.9375 66.4323 71.4421 67.1484 72.0996L66.0156 73.2129ZM77.1445 85.293C76.0443 85.293 75.0286 85.1042 74.0977 84.7266C73.1732 84.349 72.3691 83.8184 71.6855 83.1348C71.002 82.4447 70.4714 81.6374 70.0938 80.7129C69.7161 79.7819 69.5273 78.7695 69.5273 77.6758C69.5273 76.5755 69.7161 75.5632 70.0938 74.6387C70.4714 73.7077 71.002 72.9004 71.6855 72.2168C72.3691 71.5332 73.1732 71.0026 74.0977 70.625C75.0286 70.2474 76.0443 70.0586 77.1445 70.0586C78.2448 70.0586 79.2572 70.2474 80.1816 70.625C81.1061 71.0026 81.9102 71.5332 82.5938 72.2168C83.2773 72.9004 83.8079 73.7077 84.1855 74.6387C84.5632 75.5632 84.752 76.5755 84.752 77.6758C84.752 78.7695 84.5632 79.7819 84.1855 80.7129C83.8079 81.6374 83.2773 82.4447 82.5938 83.1348C81.9102 83.8184 81.1061 84.349 80.1816 84.7266C79.2572 85.1042 78.2448 85.293 77.1445 85.293ZM77.1445 83.7695C77.9844 83.7695 78.7591 83.6165 79.4688 83.3105C80.1849 83.0046 80.8066 82.5781 81.334 82.0312C81.8613 81.4779 82.2682 80.8333 82.5547 80.0977C82.8477 79.3555 82.9941 78.5482 82.9941 77.6758C82.9941 76.8034 82.8477 75.9961 82.5547 75.2539C82.2682 74.5117 81.8613 73.8672 81.334 73.3203C80.8066 72.7669 80.1849 72.3405 79.4688 72.041C78.7591 71.735 77.9844 71.582 77.1445 71.582C76.3047 71.582 75.5267 71.735 74.8105 72.041C74.1009 72.3405 73.4824 72.7669 72.9551 73.3203C72.4277 73.8672 72.0176 74.5117 71.7246 75.2539C71.4316 75.9961 71.2852 76.8034 71.2852 77.6758C71.2852 78.5482 71.4316 79.3555 71.7246 80.0977C72.0176 80.8398 72.4277 81.4876 72.9551 82.041C73.4824 82.5879 74.1009 83.0143 74.8105 83.3203C75.5267 83.6198 76.3047 83.7695 77.1445 83.7695Z" fill="white"/>
<rect x="109.5" y="63.5" width="12.0667" height="12.0667" rx="3.5" stroke="#FFF0F0"/>
<circle cx="115.533" cy="69.5333" r="2.8" fill="white"/>
</svg>
