<svg width="130" height="70" viewBox="0 0 130 70" fill="none" xmlns="http://www.w3.org/2000/svg">
<path d="M27.4434 37C26.5502 35.453 26.5502 33.547 27.4434 32L43.8066 3.65802C44.6998 2.11102 46.3504 1.15802 48.1368 1.15802H80.8633C82.6496 1.15802 84.3002 2.11102 85.1934 3.65802L101.557 32C102.45 33.547 102.45 35.453 101.557 37L85.1934 65.342C84.3002 66.889 82.6496 67.842 80.8633 67.842H48.1367C46.3504 67.842 44.6998 66.889 43.8066 65.342L27.4434 37Z" fill="white"/>
<path d="M51.764 54.56V53.996H53.12C53.4 53.996 53.652 53.948 53.876 53.852C54.1 53.756 54.276 53.616 54.404 53.432C54.532 53.248 54.596 53.024 54.596 52.76C54.596 52.36 54.456 52.052 54.176 51.836C53.896 51.612 53.544 51.5 53.12 51.5H51.98V58.1H53.24C53.6 58.1 53.916 58.036 54.188 57.908C54.468 57.78 54.684 57.596 54.836 57.356C54.996 57.116 55.076 56.824 55.076 56.48C55.076 56.224 55.032 55.996 54.944 55.796C54.856 55.596 54.728 55.428 54.56 55.292C54.4 55.156 54.208 55.056 53.984 54.992C53.76 54.92 53.512 54.884 53.24 54.884H51.764V54.32H53.24C53.648 54.32 54.024 54.364 54.368 54.452C54.712 54.54 55.012 54.676 55.268 54.86C55.532 55.036 55.736 55.264 55.88 55.544C56.024 55.824 56.096 56.156 56.096 56.54C56.096 57.092 55.968 57.552 55.712 57.92C55.464 58.28 55.124 58.552 54.692 58.736C54.268 58.912 53.784 59 53.24 59H50.96V50.6H53.12C53.624 50.6 54.06 50.676 54.428 50.828C54.804 50.98 55.096 51.212 55.304 51.524C55.512 51.828 55.616 52.22 55.616 52.7C55.616 53.092 55.512 53.428 55.304 53.708C55.096 53.988 54.804 54.2 54.428 54.344C54.06 54.488 53.624 54.56 53.12 54.56H51.764ZM57.1114 56.24C57.1114 55.68 57.2354 55.184 57.4834 54.752C57.7394 54.32 58.0834 53.98 58.5154 53.732C58.9474 53.484 59.4314 53.36 59.9674 53.36C60.5114 53.36 60.9954 53.484 61.4194 53.732C61.8514 53.98 62.1914 54.32 62.4394 54.752C62.6954 55.184 62.8234 55.68 62.8234 56.24C62.8234 56.792 62.6954 57.288 62.4394 57.728C62.1914 58.16 61.8514 58.5 61.4194 58.748C60.9954 58.996 60.5114 59.12 59.9674 59.12C59.4314 59.12 58.9474 58.996 58.5154 58.748C58.0834 58.5 57.7394 58.16 57.4834 57.728C57.2354 57.288 57.1114 56.792 57.1114 56.24ZM58.0834 56.24C58.0834 56.624 58.1634 56.964 58.3234 57.26C58.4914 57.556 58.7154 57.792 58.9954 57.968C59.2834 58.136 59.6074 58.22 59.9674 58.22C60.3274 58.22 60.6474 58.136 60.9274 57.968C61.2154 57.792 61.4394 57.556 61.5994 57.26C61.7674 56.964 61.8514 56.624 61.8514 56.24C61.8514 55.856 61.7674 55.516 61.5994 55.22C61.4394 54.916 61.2154 54.68 60.9274 54.512C60.6474 54.344 60.3274 54.26 59.9674 54.26C59.6074 54.26 59.2834 54.344 58.9954 54.512C58.7154 54.68 58.4914 54.916 58.3234 55.22C58.1634 55.516 58.0834 55.856 58.0834 56.24ZM64.5742 57.296C64.5742 57.504 64.6222 57.684 64.7182 57.836C64.8222 57.988 64.9622 58.104 65.1382 58.184C65.3222 58.256 65.5302 58.292 65.7622 58.292C66.0582 58.292 66.3222 58.232 66.5542 58.112C66.7942 57.992 66.9822 57.824 67.1182 57.608C67.2622 57.384 67.3342 57.128 67.3342 56.84L67.5262 57.56C67.5262 57.912 67.4182 58.204 67.2022 58.436C66.9942 58.668 66.7342 58.84 66.4222 58.952C66.1182 59.064 65.8142 59.12 65.5102 59.12C65.1742 59.12 64.8582 59.052 64.5622 58.916C64.2742 58.772 64.0422 58.568 63.8662 58.304C63.6902 58.04 63.6022 57.72 63.6022 57.344C63.6022 56.808 63.7902 56.38 64.1662 56.06C64.5502 55.732 65.0822 55.568 65.7622 55.568C66.1622 55.568 66.4942 55.616 66.7582 55.712C67.0302 55.8 67.2462 55.904 67.4062 56.024C67.5662 56.136 67.6742 56.228 67.7302 56.3V56.864C67.4502 56.672 67.1622 56.536 66.8662 56.456C66.5702 56.368 66.2542 56.324 65.9182 56.324C65.6062 56.324 65.3502 56.364 65.1502 56.444C64.9582 56.524 64.8142 56.636 64.7182 56.78C64.6222 56.924 64.5742 57.096 64.5742 57.296ZM64.4302 54.752L63.9622 54.044C64.1702 53.892 64.4542 53.74 64.8142 53.588C65.1822 53.436 65.6222 53.36 66.1342 53.36C66.5662 53.36 66.9422 53.428 67.2622 53.564C67.5902 53.692 67.8422 53.88 68.0182 54.128C68.2022 54.376 68.2942 54.68 68.2942 55.04V59H67.3342V55.172C67.3342 54.98 67.3022 54.824 67.2382 54.704C67.1742 54.576 67.0822 54.476 66.9622 54.404C66.8502 54.332 66.7182 54.28 66.5662 54.248C66.4142 54.216 66.2542 54.2 66.0862 54.2C65.8142 54.2 65.5662 54.232 65.3422 54.296C65.1262 54.36 64.9422 54.436 64.7902 54.524C64.6382 54.612 64.5182 54.688 64.4302 54.752ZM70.8795 53.48V59H69.9195V53.48H70.8795ZM72.5475 54.536C72.4195 54.44 72.3035 54.372 72.1995 54.332C72.0955 54.284 71.9635 54.26 71.8035 54.26C71.5635 54.26 71.3755 54.32 71.2395 54.44C71.1035 54.56 71.0075 54.724 70.9515 54.932C70.9035 55.14 70.8795 55.376 70.8795 55.64H70.4475C70.4475 55.2 70.5235 54.812 70.6755 54.476C70.8355 54.132 71.0395 53.86 71.2875 53.66C71.5355 53.46 71.7875 53.36 72.0435 53.36C72.2435 53.36 72.4275 53.388 72.5955 53.444C72.7715 53.492 72.9315 53.592 73.0755 53.744L72.5475 54.536ZM78.1728 49.64H79.1328V59H78.1728V49.64ZM73.5528 56.24C73.5528 55.64 73.6768 55.128 73.9248 54.704C74.1728 54.272 74.5048 53.94 74.9208 53.708C75.3368 53.476 75.7928 53.36 76.2888 53.36C76.7528 53.36 77.1568 53.476 77.5008 53.708C77.8448 53.94 78.1128 54.272 78.3048 54.704C78.5048 55.128 78.6048 55.64 78.6048 56.24C78.6048 56.832 78.5048 57.344 78.3048 57.776C78.1128 58.208 77.8448 58.54 77.5008 58.772C77.1568 59.004 76.7528 59.12 76.2888 59.12C75.7928 59.12 75.3368 59.004 74.9208 58.772C74.5048 58.54 74.1728 58.208 73.9248 57.776C73.6768 57.344 73.5528 56.832 73.5528 56.24ZM74.5248 56.24C74.5248 56.664 74.6088 57.024 74.7768 57.32C74.9528 57.616 75.1848 57.84 75.4728 57.992C75.7608 58.144 76.0728 58.22 76.4088 58.22C76.6888 58.22 76.9648 58.144 77.2368 57.992C77.5088 57.84 77.7328 57.616 77.9088 57.32C78.0848 57.024 78.1728 56.664 78.1728 56.24C78.1728 55.816 78.0848 55.456 77.9088 55.16C77.7328 54.864 77.5088 54.64 77.2368 54.488C76.9648 54.336 76.6888 54.26 76.4088 54.26C76.0728 54.26 75.7608 54.336 75.4728 54.488C75.1848 54.64 74.9528 54.864 74.7768 55.16C74.6088 55.456 74.5248 55.816 74.5248 56.24Z" fill="#7C519B"/>
<path d="M14.58 36.1V33.22H26.28C26.28 34.972 26.016 36.64 25.488 38.224C24.96 39.784 24.18 41.176 23.148 42.4C22.116 43.624 20.844 44.596 19.332 45.316C17.844 46.012 16.14 46.36 14.22 46.36C12.396 46.36 10.704 46.048 9.144 45.424C7.584 44.776 6.228 43.876 5.076 42.724C3.924 41.548 3.024 40.168 2.376 38.584C1.752 37 1.44 35.272 1.44 33.4C1.44 31.528 1.752 29.8 2.376 28.216C3.024 26.632 3.924 25.264 5.076 24.112C6.228 22.936 7.584 22.036 9.144 21.412C10.704 20.764 12.396 20.44 14.22 20.44C15.78 20.44 17.208 20.644 18.504 21.052C19.824 21.46 21 22.06 22.032 22.852C23.088 23.644 23.976 24.628 24.696 25.804L22.536 27.784C21.744 26.44 20.64 25.396 19.224 24.652C17.808 23.884 16.14 23.5 14.22 23.5C12.444 23.5 10.836 23.92 9.396 24.76C7.956 25.6 6.804 26.764 5.94 28.252C5.1 29.716 4.68 31.432 4.68 33.4C4.68 35.344 5.1 37.06 5.94 38.548C6.804 40.036 7.956 41.2 9.396 42.04C10.836 42.88 12.444 43.3 14.22 43.3C15.468 43.3 16.584 43.12 17.568 42.76C18.576 42.376 19.44 41.848 20.16 41.176C20.88 40.504 21.468 39.736 21.924 38.872C22.404 38.008 22.752 37.084 22.968 36.1H14.58Z" fill="white"/>
<path d="M40.1541 33.4C40.1541 35.296 40.5621 36.988 41.3781 38.476C42.2181 39.964 43.3581 41.14 44.7981 42.004C46.2381 42.868 47.8701 43.3 49.6941 43.3C51.5421 43.3 53.1741 42.868 54.5901 42.004C56.0301 41.14 57.1581 39.964 57.9741 38.476C58.8141 36.988 59.2341 35.296 59.2341 33.4C59.2341 31.504 58.8141 29.812 57.9741 28.324C57.1581 26.836 56.0301 25.66 54.5901 24.796C53.1741 23.932 51.5421 23.5 49.6941 23.5C47.8701 23.5 46.2381 23.932 44.7981 24.796C43.3581 25.66 42.2181 26.836 41.3781 28.324C40.5621 29.812 40.1541 31.504 40.1541 33.4ZM36.9141 33.4C36.9141 31.552 37.2261 29.848 37.8501 28.288C38.4981 26.704 39.3981 25.336 40.5501 24.184C41.7021 23.008 43.0581 22.096 44.6181 21.448C46.1781 20.776 47.8701 20.44 49.6941 20.44C51.5421 20.44 53.2341 20.776 54.7701 21.448C56.3301 22.096 57.6861 23.008 58.8381 24.184C59.9901 25.336 60.8781 26.704 61.5021 28.288C62.1501 29.848 62.4741 31.552 62.4741 33.4C62.4741 35.224 62.1501 36.928 61.5021 38.512C60.8781 40.096 59.9901 41.476 58.8381 42.652C57.6861 43.804 56.3301 44.716 54.7701 45.388C53.2341 46.036 51.5421 46.36 49.6941 46.36C47.8701 46.36 46.1781 46.036 44.6181 45.388C43.0581 44.716 41.7021 43.804 40.5501 42.652C39.3981 41.476 38.4981 40.096 37.8501 38.512C37.2261 36.928 36.9141 35.224 36.9141 33.4Z" fill="#7C519B"/>
<path d="M79.58 36.1V33.22H91.28C91.28 34.972 91.016 36.64 90.488 38.224C89.96 39.784 89.18 41.176 88.148 42.4C87.116 43.624 85.844 44.596 84.332 45.316C82.844 46.012 81.14 46.36 79.22 46.36C77.396 46.36 75.704 46.048 74.144 45.424C72.584 44.776 71.228 43.876 70.076 42.724C68.924 41.548 68.024 40.168 67.376 38.584C66.752 37 66.44 35.272 66.44 33.4C66.44 31.528 66.752 29.8 67.376 28.216C68.024 26.632 68.924 25.264 70.076 24.112C71.228 22.936 72.584 22.036 74.144 21.412C75.704 20.764 77.396 20.44 79.22 20.44C80.78 20.44 82.208 20.644 83.504 21.052C84.824 21.46 86 22.06 87.032 22.852C88.088 23.644 88.976 24.628 89.696 25.804L87.536 27.784C86.744 26.44 85.64 25.396 84.224 24.652C82.808 23.884 81.14 23.5 79.22 23.5C77.444 23.5 75.836 23.92 74.396 24.76C72.956 25.6 71.804 26.764 70.94 28.252C70.1 29.716 69.68 31.432 69.68 33.4C69.68 35.344 70.1 37.06 70.94 38.548C71.804 40.036 72.956 41.2 74.396 42.04C75.836 42.88 77.444 43.3 79.22 43.3C80.468 43.3 81.584 43.12 82.568 42.76C83.576 42.376 84.44 41.848 85.16 41.176C85.88 40.504 86.468 39.736 86.924 38.872C87.404 38.008 87.752 37.084 87.968 36.1H79.58Z" fill="#7C519B"/>
<path d="M105.514 33.4C105.514 35.296 105.922 36.988 106.738 38.476C107.578 39.964 108.718 41.14 110.158 42.004C111.598 42.868 113.23 43.3 115.054 43.3C116.902 43.3 118.534 42.868 119.95 42.004C121.39 41.14 122.518 39.964 123.334 38.476C124.174 36.988 124.594 35.296 124.594 33.4C124.594 31.504 124.174 29.812 123.334 28.324C122.518 26.836 121.39 25.66 119.95 24.796C118.534 23.932 116.902 23.5 115.054 23.5C113.23 23.5 111.598 23.932 110.158 24.796C108.718 25.66 107.578 26.836 106.738 28.324C105.922 29.812 105.514 31.504 105.514 33.4ZM102.274 33.4C102.274 31.552 102.586 29.848 103.21 28.288C103.858 26.704 104.758 25.336 105.91 24.184C107.062 23.008 108.418 22.096 109.978 21.448C111.538 20.776 113.23 20.44 115.054 20.44C116.902 20.44 118.594 20.776 120.13 21.448C121.69 22.096 123.046 23.008 124.198 24.184C125.35 25.336 126.238 26.704 126.862 28.288C127.51 29.848 127.834 31.552 127.834 33.4C127.834 35.224 127.51 36.928 126.862 38.512C126.238 40.096 125.35 41.476 124.198 42.652C123.046 43.804 121.69 44.716 120.13 45.388C118.594 46.036 116.902 46.36 115.054 46.36C113.23 46.36 111.538 46.036 109.978 45.388C108.418 44.716 107.062 43.804 105.91 42.652C104.758 41.476 103.858 40.096 103.21 38.512C102.586 36.928 102.274 35.224 102.274 33.4Z" fill="white"/>
</svg>
