<svg width="656" height="512" viewBox="0 0 656 512" fill="none" xmlns="http://www.w3.org/2000/svg">
<path d="M97.408 466.32V463.312H104.64C106.133 463.312 107.477 463.056 108.672 462.544C109.867 462.032 110.805 461.285 111.488 460.304C112.171 459.323 112.512 458.128 112.512 456.72C112.512 454.587 111.765 452.944 110.272 451.792C108.779 450.597 106.901 450 104.64 450H98.56V485.2H105.28C107.2 485.2 108.885 484.859 110.336 484.176C111.829 483.493 112.981 482.512 113.792 481.232C114.645 479.952 115.072 478.395 115.072 476.56C115.072 475.195 114.837 473.979 114.368 472.912C113.899 471.845 113.216 470.949 112.32 470.224C111.467 469.499 110.443 468.965 109.248 468.624C108.053 468.24 106.731 468.048 105.28 468.048H97.408V465.04H105.28C107.456 465.04 109.461 465.275 111.296 465.744C113.131 466.213 114.731 466.939 116.096 467.92C117.504 468.859 118.592 470.075 119.36 471.568C120.128 473.061 120.512 474.832 120.512 476.88C120.512 479.824 119.829 482.277 118.464 484.24C117.141 486.16 115.328 487.611 113.024 488.592C110.763 489.531 108.181 490 105.28 490H93.12V445.2H104.64C107.328 445.2 109.653 445.605 111.616 446.416C113.621 447.227 115.179 448.464 116.288 450.128C117.397 451.749 117.952 453.84 117.952 456.4C117.952 458.491 117.397 460.283 116.288 461.776C115.179 463.269 113.621 464.4 111.616 465.168C109.653 465.936 107.328 466.32 104.64 466.32H97.408ZM205.928 475.28C205.928 472.293 206.589 469.648 207.911 467.344C209.277 465.04 211.112 463.227 213.416 461.904C215.72 460.581 218.301 459.92 221.16 459.92C224.061 459.92 226.642 460.581 228.904 461.904C231.208 463.227 233.021 465.04 234.344 467.344C235.709 469.648 236.392 472.293 236.392 475.28C236.392 478.224 235.709 480.869 234.344 483.216C233.021 485.52 231.208 487.333 228.904 488.656C226.642 489.979 224.061 490.64 221.16 490.64C218.301 490.64 215.72 489.979 213.416 488.656C211.112 487.333 209.277 485.52 207.911 483.216C206.589 480.869 205.928 478.224 205.928 475.28ZM211.112 475.28C211.112 477.328 211.538 479.141 212.392 480.72C213.288 482.299 214.482 483.557 215.976 484.496C217.512 485.392 219.24 485.84 221.16 485.84C223.08 485.84 224.786 485.392 226.28 484.496C227.816 483.557 229.01 482.299 229.864 480.72C230.76 479.141 231.208 477.328 231.208 475.28C231.208 473.232 230.76 471.419 229.864 469.84C229.01 468.219 227.816 466.96 226.28 466.064C224.786 465.168 223.08 464.72 221.16 464.72C219.24 464.72 217.512 465.168 215.976 466.064C214.482 466.96 213.288 468.219 212.392 469.84C211.538 471.419 211.112 473.232 211.112 475.28ZM325.729 480.912C325.729 482.021 325.985 482.981 326.497 483.792C327.052 484.603 327.798 485.221 328.737 485.648C329.718 486.032 330.828 486.224 332.065 486.224C333.644 486.224 335.052 485.904 336.289 485.264C337.569 484.624 338.572 483.728 339.297 482.576C340.065 481.381 340.449 480.016 340.449 478.48L341.473 482.32C341.473 484.197 340.897 485.755 339.745 486.992C338.636 488.229 337.249 489.147 335.585 489.744C333.964 490.341 332.342 490.64 330.721 490.64C328.929 490.64 327.244 490.277 325.665 489.552C324.129 488.784 322.892 487.696 321.953 486.288C321.014 484.88 320.545 483.173 320.545 481.168C320.545 478.309 321.548 476.027 323.553 474.32C325.601 472.571 328.438 471.696 332.065 471.696C334.198 471.696 335.969 471.952 337.377 472.464C338.828 472.933 339.98 473.488 340.833 474.128C341.686 474.725 342.262 475.216 342.561 475.6V478.608C341.068 477.584 339.532 476.859 337.953 476.432C336.374 475.963 334.689 475.728 332.897 475.728C331.233 475.728 329.868 475.941 328.801 476.368C327.777 476.795 327.009 477.392 326.497 478.16C325.985 478.928 325.729 479.845 325.729 480.912ZM324.961 467.344L322.465 463.568C323.574 462.757 325.089 461.947 327.009 461.136C328.972 460.325 331.318 459.92 334.049 459.92C336.353 459.92 338.358 460.283 340.065 461.008C341.814 461.691 343.158 462.693 344.097 464.016C345.078 465.339 345.569 466.96 345.569 468.88V490H340.449V469.584C340.449 468.56 340.278 467.728 339.937 467.088C339.596 466.405 339.105 465.872 338.465 465.488C337.868 465.104 337.164 464.827 336.353 464.656C335.542 464.485 334.689 464.4 333.793 464.4C332.342 464.4 331.02 464.571 329.825 464.912C328.673 465.253 327.692 465.659 326.881 466.128C326.07 466.597 325.43 467.003 324.961 467.344ZM439.358 460.56V490H434.238V460.56H439.358ZM448.253 466.192C447.571 465.68 446.952 465.317 446.398 465.104C445.843 464.848 445.139 464.72 444.286 464.72C443.006 464.72 442.003 465.04 441.278 465.68C440.552 466.32 440.04 467.195 439.742 468.304C439.486 469.413 439.358 470.672 439.358 472.08H437.054C437.054 469.733 437.459 467.664 438.27 465.872C439.123 464.037 440.211 462.587 441.534 461.52C442.856 460.453 444.2 459.92 445.566 459.92C446.632 459.92 447.614 460.069 448.51 460.368C449.448 460.624 450.302 461.157 451.07 461.968L448.253 466.192ZM558.255 440.08H563.375V490H558.255V440.08ZM533.615 475.28C533.615 472.08 534.276 469.349 535.599 467.088C536.922 464.784 538.692 463.013 540.911 461.776C543.13 460.539 545.562 459.92 548.207 459.92C550.682 459.92 552.836 460.539 554.671 461.776C556.506 463.013 557.935 464.784 558.959 467.088C560.026 469.349 560.559 472.08 560.559 475.28C560.559 478.437 560.026 481.168 558.959 483.472C557.935 485.776 556.506 487.547 554.671 488.784C552.836 490.021 550.682 490.64 548.207 490.64C545.562 490.64 543.13 490.021 540.911 488.784C538.692 487.547 536.922 485.776 535.599 483.472C534.276 481.168 533.615 478.437 533.615 475.28ZM538.799 475.28C538.799 477.541 539.247 479.461 540.143 481.04C541.082 482.619 542.319 483.813 543.855 484.624C545.391 485.435 547.055 485.84 548.847 485.84C550.34 485.84 551.812 485.435 553.263 484.624C554.714 483.813 555.908 482.619 556.847 481.04C557.786 479.461 558.255 477.541 558.255 475.28C558.255 473.019 557.786 471.099 556.847 469.52C555.908 467.941 554.714 466.747 553.263 465.936C551.812 465.125 550.34 464.72 548.847 464.72C547.055 464.72 545.391 465.125 543.855 465.936C542.319 466.747 541.082 467.941 540.143 469.52C539.247 471.099 538.799 473.019 538.799 475.28Z" fill="white"/>
<path d="M203 475L212.25 458.979H230.75L240 475L230.75 491.021H212.25L203 475Z" fill="white"/>
<mask id="path-3-outside-1_642_3022" maskUnits="userSpaceOnUse" x="38" y="34" width="383" height="187" fill="black">
<rect fill="white" x="38" y="34" width="383" height="187"/>
<path d="M132.805 146.6V126.12H216.005C216.005 138.579 214.128 150.44 210.373 161.704C206.618 172.797 201.072 182.696 193.733 191.4C186.394 200.104 177.349 207.016 166.597 212.136C156.016 217.085 143.898 219.56 130.245 219.56C117.274 219.56 105.242 217.341 94.149 212.904C83.0557 208.296 73.413 201.896 65.221 193.704C57.029 185.341 50.629 175.528 46.021 164.264C41.5837 153 39.365 140.712 39.365 127.4C39.365 114.088 41.5837 101.8 46.021 90.536C50.629 79.272 57.029 69.544 65.221 61.352C73.413 52.9893 83.0557 46.5893 94.149 42.152C105.242 37.544 117.274 35.24 130.245 35.24C141.338 35.24 151.493 36.6907 160.709 39.592C170.096 42.4933 178.458 46.76 185.797 52.392C193.306 58.024 199.621 65.0213 204.741 73.384L189.381 87.464C183.749 77.9067 175.898 70.4827 165.829 65.192C155.76 59.7307 143.898 57 130.245 57C117.616 57 106.181 59.9867 95.941 65.96C85.701 71.9333 77.509 80.2107 71.365 90.792C65.3917 101.203 62.405 113.405 62.405 127.4C62.405 141.224 65.3917 153.427 71.365 164.008C77.509 174.589 85.701 182.867 95.941 188.84C106.181 194.813 117.616 197.8 130.245 197.8C139.12 197.8 147.056 196.52 154.053 193.96C161.221 191.229 167.365 187.475 172.485 182.696C177.605 177.917 181.786 172.456 185.029 166.312C188.442 160.168 190.917 153.597 192.453 146.6H132.805ZM260.905 127.4C260.905 140.883 263.806 152.915 269.609 163.496C275.582 174.077 283.689 182.44 293.929 188.584C304.169 194.728 315.774 197.8 328.745 197.8C341.886 197.8 353.492 194.728 363.561 188.584C373.801 182.44 381.822 174.077 387.625 163.496C393.598 152.915 396.585 140.883 396.585 127.4C396.585 113.917 393.598 101.885 387.625 91.304C381.822 80.7227 373.801 72.36 363.561 66.216C353.492 60.072 341.886 57 328.745 57C315.774 57 304.169 60.072 293.929 66.216C283.689 72.36 275.582 80.7227 269.609 91.304C263.806 101.885 260.905 113.917 260.905 127.4ZM237.865 127.4C237.865 114.259 240.084 102.141 244.521 91.048C249.129 79.784 255.529 70.056 263.721 61.864C271.913 53.5013 281.556 47.016 292.649 42.408C303.742 37.6293 315.774 35.24 328.745 35.24C341.886 35.24 353.918 37.6293 364.841 42.408C375.934 47.016 385.577 53.5013 393.769 61.864C401.961 70.056 408.276 79.784 412.713 91.048C417.321 102.141 419.625 114.259 419.625 127.4C419.625 140.371 417.321 152.488 412.713 163.752C408.276 175.016 401.961 184.829 393.769 193.192C385.577 201.384 375.934 207.869 364.841 212.648C353.918 217.256 341.886 219.56 328.745 219.56C315.774 219.56 303.742 217.256 292.649 212.648C281.556 207.869 271.913 201.384 263.721 193.192C255.529 184.829 249.129 175.016 244.521 163.752C240.084 152.488 237.865 140.371 237.865 127.4Z"/>
</mask>
<path d="M132.805 146.6V126.12H216.005C216.005 138.579 214.128 150.44 210.373 161.704C206.618 172.797 201.072 182.696 193.733 191.4C186.394 200.104 177.349 207.016 166.597 212.136C156.016 217.085 143.898 219.56 130.245 219.56C117.274 219.56 105.242 217.341 94.149 212.904C83.0557 208.296 73.413 201.896 65.221 193.704C57.029 185.341 50.629 175.528 46.021 164.264C41.5837 153 39.365 140.712 39.365 127.4C39.365 114.088 41.5837 101.8 46.021 90.536C50.629 79.272 57.029 69.544 65.221 61.352C73.413 52.9893 83.0557 46.5893 94.149 42.152C105.242 37.544 117.274 35.24 130.245 35.24C141.338 35.24 151.493 36.6907 160.709 39.592C170.096 42.4933 178.458 46.76 185.797 52.392C193.306 58.024 199.621 65.0213 204.741 73.384L189.381 87.464C183.749 77.9067 175.898 70.4827 165.829 65.192C155.76 59.7307 143.898 57 130.245 57C117.616 57 106.181 59.9867 95.941 65.96C85.701 71.9333 77.509 80.2107 71.365 90.792C65.3917 101.203 62.405 113.405 62.405 127.4C62.405 141.224 65.3917 153.427 71.365 164.008C77.509 174.589 85.701 182.867 95.941 188.84C106.181 194.813 117.616 197.8 130.245 197.8C139.12 197.8 147.056 196.52 154.053 193.96C161.221 191.229 167.365 187.475 172.485 182.696C177.605 177.917 181.786 172.456 185.029 166.312C188.442 160.168 190.917 153.597 192.453 146.6H132.805ZM260.905 127.4C260.905 140.883 263.806 152.915 269.609 163.496C275.582 174.077 283.689 182.44 293.929 188.584C304.169 194.728 315.774 197.8 328.745 197.8C341.886 197.8 353.492 194.728 363.561 188.584C373.801 182.44 381.822 174.077 387.625 163.496C393.598 152.915 396.585 140.883 396.585 127.4C396.585 113.917 393.598 101.885 387.625 91.304C381.822 80.7227 373.801 72.36 363.561 66.216C353.492 60.072 341.886 57 328.745 57C315.774 57 304.169 60.072 293.929 66.216C283.689 72.36 275.582 80.7227 269.609 91.304C263.806 101.885 260.905 113.917 260.905 127.4ZM237.865 127.4C237.865 114.259 240.084 102.141 244.521 91.048C249.129 79.784 255.529 70.056 263.721 61.864C271.913 53.5013 281.556 47.016 292.649 42.408C303.742 37.6293 315.774 35.24 328.745 35.24C341.886 35.24 353.918 37.6293 364.841 42.408C375.934 47.016 385.577 53.5013 393.769 61.864C401.961 70.056 408.276 79.784 412.713 91.048C417.321 102.141 419.625 114.259 419.625 127.4C419.625 140.371 417.321 152.488 412.713 163.752C408.276 175.016 401.961 184.829 393.769 193.192C385.577 201.384 375.934 207.869 364.841 212.648C353.918 217.256 341.886 219.56 328.745 219.56C315.774 219.56 303.742 217.256 292.649 212.648C281.556 207.869 271.913 201.384 263.721 193.192C255.529 184.829 249.129 175.016 244.521 163.752C240.084 152.488 237.865 140.371 237.865 127.4Z" fill="white"/>
<path d="M132.805 146.6H131.805V147.6H132.805V146.6ZM132.805 126.12V125.12H131.805V126.12H132.805ZM216.005 126.12H217.005V125.12H216.005V126.12ZM210.373 161.704L211.32 162.025L211.322 162.02L210.373 161.704ZM193.733 191.4L192.968 190.755L193.733 191.4ZM166.597 212.136L167.021 213.042L167.027 213.039L166.597 212.136ZM94.149 212.904L93.7654 213.828L93.7776 213.832L94.149 212.904ZM65.221 193.704L64.5066 194.404L64.5139 194.411L65.221 193.704ZM46.021 164.264L45.0905 164.631L45.0955 164.643L46.021 164.264ZM46.021 90.536L45.0954 90.1573L45.0906 90.1695L46.021 90.536ZM65.221 61.352L65.9281 62.0591L65.9354 62.0518L65.221 61.352ZM94.149 42.152L94.5204 43.0806L94.5326 43.0755L94.149 42.152ZM160.709 39.592L160.409 40.5459L160.414 40.5474L160.709 39.592ZM185.797 52.392L185.188 53.1854L185.197 53.192L185.797 52.392ZM204.741 73.384L205.417 74.1211L206.024 73.5644L205.594 72.8618L204.741 73.384ZM189.381 87.464L188.519 87.9717L189.146 89.0356L190.057 88.2011L189.381 87.464ZM165.829 65.192L165.352 66.0711L165.364 66.0772L165.829 65.192ZM95.941 65.96L95.4371 65.0962L95.941 65.96ZM71.365 90.792L70.5002 90.2898L70.4976 90.2943L71.365 90.792ZM71.365 164.008L70.4941 164.5L70.5002 164.51L71.365 164.008ZM95.941 188.84L95.4371 189.704L95.941 188.84ZM154.053 193.96L154.397 194.899L154.409 194.894L154.053 193.96ZM172.485 182.696L171.803 181.965L172.485 182.696ZM185.029 166.312L184.155 165.826L184.15 165.836L184.145 165.845L185.029 166.312ZM192.453 146.6L193.43 146.814L193.696 145.6H192.453V146.6ZM133.805 146.6V126.12H131.805V146.6H133.805ZM132.805 127.12H216.005V125.12H132.805V127.12ZM215.005 126.12C215.005 138.477 213.143 150.231 209.424 161.388L211.322 162.02C215.112 150.649 217.005 138.681 217.005 126.12H215.005ZM209.426 161.383C205.71 172.362 200.224 182.15 192.968 190.755L194.498 192.045C201.919 183.242 207.527 173.233 211.32 162.025L209.426 161.383ZM192.968 190.755C185.726 199.345 176.796 206.172 166.167 211.233L167.027 213.039C177.902 207.86 187.063 200.863 194.498 192.045L192.968 190.755ZM166.173 211.23C155.745 216.108 143.776 218.56 130.245 218.56V220.56C144.02 220.56 156.286 218.063 167.021 213.042L166.173 211.23ZM130.245 218.56C117.391 218.56 105.486 216.362 94.5204 211.976L93.7776 213.832C104.999 218.321 117.158 220.56 130.245 220.56V218.56ZM94.5326 211.98C83.5557 207.421 74.0241 201.093 65.9281 192.997L64.5139 194.411C72.8019 202.699 82.5556 209.171 93.7654 213.827L94.5326 211.98ZM65.9354 193.004C57.8374 184.738 51.5076 175.035 46.9465 163.885L45.0955 164.643C49.7504 176.021 56.2206 185.945 64.5066 194.404L65.9354 193.004ZM46.9514 163.897C42.5644 152.761 40.365 140.599 40.365 127.4H38.365C38.365 140.825 40.6029 153.239 45.0906 164.631L46.9514 163.897ZM40.365 127.4C40.365 114.201 42.5644 102.039 46.9514 90.9025L45.0906 90.1695C40.6029 101.561 38.365 113.975 38.365 127.4H40.365ZM46.9465 90.9146C51.5068 79.7672 57.8347 70.1525 65.9281 62.0591L64.5139 60.6449C56.2233 68.9355 49.7512 78.7768 45.0955 90.1574L46.9465 90.9146ZM65.9354 62.0518C74.0281 53.7904 83.5533 47.4673 94.5204 43.0805L93.7776 41.2235C82.558 45.7113 72.7979 52.1882 64.5066 60.6522L65.9354 62.0518ZM94.5326 43.0755C105.495 38.5219 117.395 36.24 130.245 36.24V34.24C117.153 34.24 104.99 36.5661 93.7654 41.2285L94.5326 43.0755ZM130.245 36.24C141.251 36.24 151.303 37.6792 160.409 40.5458L161.009 38.6381C151.683 35.7021 141.425 34.24 130.245 34.24V36.24ZM160.414 40.5474C169.694 43.4159 177.949 47.6299 185.188 53.1853L186.406 51.5987C178.967 45.8901 170.497 41.5707 161.004 38.6366L160.414 40.5474ZM185.197 53.192C192.601 58.7448 198.831 65.6464 203.888 73.9061L205.594 72.8618C200.411 64.3963 194.012 57.3032 186.397 51.592L185.197 53.192ZM204.065 72.6468L188.705 86.7268L190.057 88.2011L205.417 74.1211L204.065 72.6468ZM190.243 86.9563C184.514 77.2345 176.524 69.6816 166.294 64.3067L165.364 66.0772C175.273 71.2837 182.984 78.5788 188.519 87.9717L190.243 86.9563ZM166.306 64.313C156.064 58.7583 144.033 56 130.245 56V58C143.764 58 155.455 60.703 165.352 66.071L166.306 64.313ZM130.245 56C117.451 56 105.84 59.0278 95.4371 65.0962L96.4449 66.8238C106.522 60.9455 117.781 58 130.245 58V56ZM95.4371 65.0962C85.0426 71.1597 76.7283 79.5638 70.5002 90.2899L72.2298 91.2941C78.2897 80.8575 86.3594 72.707 96.4449 66.8238L95.4371 65.0962ZM70.4976 90.2943C64.4239 100.88 61.405 113.26 61.405 127.4H63.405C63.405 113.551 66.3594 101.525 72.2324 91.2897L70.4976 90.2943ZM61.405 127.4C61.405 141.372 64.4251 153.749 70.4942 164.5L72.2358 163.516C66.3583 153.105 63.405 141.076 63.405 127.4H61.405ZM70.5002 164.51C76.7283 175.236 85.0426 183.64 95.4371 189.704L96.4449 187.976C86.3594 182.093 78.2897 173.942 72.2298 163.506L70.5002 164.51ZM95.4371 189.704C105.84 195.772 117.451 198.8 130.245 198.8V196.8C117.781 196.8 106.522 193.854 96.4449 187.976L95.4371 189.704ZM130.245 198.8C139.215 198.8 147.27 197.506 154.397 194.899L153.709 193.021C146.841 195.534 139.024 196.8 130.245 196.8V198.8ZM154.409 194.894C161.686 192.122 167.944 188.302 173.167 183.427L171.803 181.965C166.786 186.647 160.756 190.337 153.697 193.026L154.409 194.894ZM173.167 183.427C178.368 178.573 182.618 173.022 185.913 166.779L184.145 165.845C180.955 171.89 176.842 177.262 171.803 181.965L173.167 183.427ZM185.903 166.798C189.365 160.567 191.873 153.905 193.43 146.814L191.476 146.386C189.961 153.29 187.52 159.769 184.155 165.826L185.903 166.798ZM192.453 145.6H132.805V147.6H192.453V145.6ZM269.609 163.496L268.732 163.977L268.738 163.988L269.609 163.496ZM293.929 188.584L294.443 187.727L293.929 188.584ZM363.561 188.584L363.047 187.726L363.04 187.73L363.561 188.584ZM387.625 163.496L386.754 163.004L386.748 163.015L387.625 163.496ZM387.625 91.304L386.748 91.7849L386.754 91.7956L387.625 91.304ZM363.561 66.216L363.04 67.0697L363.047 67.0735L363.561 66.216ZM293.929 66.216L293.415 65.3585H293.414L293.929 66.216ZM269.609 91.304L268.738 90.8124L268.732 90.8232L269.609 91.304ZM244.521 91.048L243.595 90.6694L243.593 90.6766L244.521 91.048ZM263.721 61.864L264.428 62.5711L264.435 62.5638L263.721 61.864ZM292.649 42.408L293.033 43.3316L293.045 43.3264L292.649 42.408ZM364.841 42.408L364.44 43.3241L364.449 43.3279L364.457 43.3315L364.841 42.408ZM393.769 61.864L393.055 62.5638L393.062 62.5711L393.769 61.864ZM412.713 91.048L411.783 91.4145L411.786 91.4231L411.79 91.4316L412.713 91.048ZM412.713 163.752L411.787 163.373L411.783 163.385L412.713 163.752ZM393.769 193.192L394.476 193.899L394.483 193.892L393.769 193.192ZM364.841 212.648L365.23 213.569L365.237 213.566L364.841 212.648ZM292.649 212.648L292.253 213.566L292.265 213.572L292.649 212.648ZM263.721 193.192L263.007 193.892L263.014 193.899L263.721 193.192ZM244.521 163.752L243.591 164.119L243.595 164.131L244.521 163.752ZM259.905 127.4C259.905 141.031 262.84 153.231 268.732 163.977L270.486 163.015C264.773 152.598 261.905 140.735 261.905 127.4H259.905ZM268.738 163.988C274.795 174.717 283.023 183.207 293.415 189.441L294.443 187.727C284.355 181.673 276.37 173.438 270.48 163.004L268.738 163.988ZM293.415 189.441C303.823 195.687 315.609 198.8 328.745 198.8V196.8C315.939 196.8 304.515 193.769 294.443 187.727L293.415 189.441ZM328.745 198.8C342.049 198.8 353.838 195.688 364.082 189.438L363.04 187.73C353.145 193.768 341.724 196.8 328.745 196.8V198.8ZM364.076 189.441C374.469 183.205 382.615 174.712 388.502 163.977L386.748 163.015C381.03 173.443 373.133 181.675 363.047 187.727L364.076 189.441ZM388.496 163.988C394.563 153.24 397.585 141.036 397.585 127.4H395.585C395.585 140.73 392.634 152.589 386.754 163.004L388.496 163.988ZM397.585 127.4C397.585 113.764 394.563 101.56 388.496 90.8124L386.754 91.7956C392.634 102.211 395.585 114.07 395.585 127.4H397.585ZM388.502 90.8232C382.615 80.0881 374.469 71.5947 364.076 65.3585L363.047 67.0735C373.133 73.1253 381.03 81.3572 386.748 91.7848L388.502 90.8232ZM364.082 65.3623C353.838 59.112 342.049 56 328.745 56V58C341.724 58 353.145 61.032 363.04 67.0696L364.082 65.3623ZM328.745 56C315.609 56 303.823 59.1133 293.415 65.3585L294.443 67.0735C304.515 61.0307 315.939 58 328.745 58V56ZM293.414 65.3585C283.023 71.5932 274.795 80.0831 268.738 90.8124L270.48 91.7956C276.37 81.3622 284.355 73.1268 294.444 67.0735L293.414 65.3585ZM268.732 90.8232C262.84 101.569 259.905 113.769 259.905 127.4H261.905C261.905 114.065 264.773 102.202 270.486 91.7848L268.732 90.8232ZM238.865 127.4C238.865 114.373 241.064 102.383 245.449 91.4194L243.593 90.6766C239.103 101.899 236.865 114.144 236.865 127.4H238.865ZM245.447 91.4266C250.007 80.2792 256.335 70.6645 264.428 62.5711L263.014 61.1569C254.723 69.4475 248.251 79.2888 243.595 90.6694L245.447 91.4266ZM264.435 62.5638C272.531 54.2997 282.06 47.8893 293.033 43.3315L292.265 41.4845C281.051 46.1427 271.295 52.703 263.007 61.1642L264.435 62.5638ZM293.045 43.3264C304.004 38.6054 315.9 36.24 328.745 36.24V34.24C315.648 34.24 303.481 36.6532 292.253 41.4896L293.045 43.3264ZM328.745 36.24C341.763 36.24 353.656 38.6062 364.44 43.3241L365.242 41.4918C354.18 36.6524 342.01 34.24 328.745 34.24V36.24ZM364.457 43.3315C375.43 47.8893 384.959 54.2997 393.055 62.5638L394.483 61.1642C386.195 52.703 376.439 46.1427 365.225 41.4845L364.457 43.3315ZM393.062 62.5711C401.153 70.6617 407.393 80.2723 411.783 91.4145L413.643 90.6815C409.158 79.2957 402.769 69.4503 394.476 61.1569L393.062 62.5711ZM411.79 91.4316C416.342 102.392 418.625 114.378 418.625 127.4H420.625C420.625 114.139 418.3 101.89 413.637 90.6644L411.79 91.4316ZM418.625 127.4C418.625 140.249 416.343 152.237 411.787 163.373L413.639 164.131C418.299 152.739 420.625 140.492 420.625 127.4H418.625ZM411.783 163.385C407.393 174.529 401.15 184.228 393.055 192.492L394.483 193.892C402.772 185.43 409.159 175.503 413.643 164.119L411.783 163.385ZM393.062 192.485C384.963 200.584 375.427 206.999 364.445 211.73L365.237 213.566C376.441 208.74 386.191 202.184 394.476 193.899L393.062 192.485ZM364.452 211.727C353.665 216.277 341.767 218.56 328.745 218.56V220.56C342.005 220.56 354.171 218.235 365.23 213.569L364.452 211.727ZM328.745 218.56C315.895 218.56 303.995 216.278 293.033 211.725L292.265 213.572C303.49 218.234 315.653 220.56 328.745 220.56V218.56ZM293.045 211.73C282.063 206.999 272.527 200.584 264.428 192.485L263.014 193.899C271.299 202.184 281.049 208.74 292.253 213.566L293.045 211.73ZM264.435 192.492C256.337 184.226 250.008 174.522 245.447 163.373L243.595 164.131C248.25 175.51 254.721 185.433 263.007 193.892L264.435 192.492ZM245.451 163.385C241.063 152.246 238.865 140.254 238.865 127.4H236.865C236.865 140.487 239.104 152.73 243.591 164.119L245.451 163.385Z" fill="black" fill-opacity="0.1" mask="url(#path-3-outside-1_642_3022)"/>
<path d="M333.93 340.6V320.12H417.13C417.13 332.579 415.253 344.44 411.498 355.704C407.743 366.797 402.197 376.696 394.858 385.4C387.519 394.104 378.474 401.016 367.722 406.136C357.141 411.085 345.023 413.56 331.37 413.56C318.399 413.56 306.367 411.341 295.274 406.904C284.181 402.296 274.538 395.896 266.346 387.704C258.154 379.341 251.754 369.528 247.146 358.264C242.709 347 240.49 334.712 240.49 321.4C240.49 308.088 242.709 295.8 247.146 284.536C251.754 273.272 258.154 263.544 266.346 255.352C274.538 246.989 284.181 240.589 295.274 236.152C306.367 231.544 318.399 229.24 331.37 229.24C342.463 229.24 352.618 230.691 361.834 233.592C371.221 236.493 379.583 240.76 386.922 246.392C394.431 252.024 400.746 259.021 405.866 267.384L390.506 281.464C384.874 271.907 377.023 264.483 366.954 259.192C356.885 253.731 345.023 251 331.37 251C318.741 251 307.306 253.987 297.066 259.96C286.826 265.933 278.634 274.211 272.49 284.792C266.517 295.203 263.53 307.405 263.53 321.4C263.53 335.224 266.517 347.427 272.49 358.008C278.634 368.589 286.826 376.867 297.066 382.84C307.306 388.813 318.741 391.8 331.37 391.8C340.245 391.8 348.181 390.52 355.178 387.96C362.346 385.229 368.49 381.475 373.61 376.696C378.73 371.917 382.911 366.456 386.154 360.312C389.567 354.168 392.042 347.597 393.578 340.6H333.93Z" fill="white"/>
<path d="M479.33 401.103L433.66 322L479.33 242.897H570.67L616.34 322L570.67 401.103H479.33Z" stroke="white" stroke-width="15"/>
<path d="M494.877 330.56L496.797 325.44H516.637L518.557 330.56H494.877ZM506.589 309.312L499.037 327.104L498.525 328.256L491.869 344H485.789L506.589 296.96L527.389 344H521.309L514.781 328.64L514.269 327.36L506.589 309.312ZM540.839 321.92H546.919L562.919 344H556.199L540.839 321.92ZM532.839 299.2H538.279V344H532.839V299.2ZM535.847 304V299.2H544.999C547.9 299.2 550.481 299.755 552.743 300.864C555.047 301.931 556.86 303.467 558.183 305.472C559.548 307.477 560.231 309.867 560.231 312.64C560.231 315.371 559.548 317.76 558.183 319.808C556.86 321.813 555.047 323.371 552.743 324.48C550.481 325.547 547.9 326.08 544.999 326.08H535.847V321.28H544.999C546.919 321.28 548.604 320.939 550.055 320.256C551.548 319.573 552.7 318.592 553.511 317.312C554.364 316.032 554.791 314.475 554.791 312.64C554.791 310.805 554.364 309.248 553.511 307.968C552.7 306.688 551.548 305.707 550.055 305.024C548.604 304.341 546.919 304 544.999 304H535.847Z" fill="white"/>
</svg>
